 <svg width="24" height="24" viewBox="0 0 24 24" fill="none" xmlns="http://www.w3.org/2000/svg">
                        <path fill-rule="evenodd" clip-rule="evenodd"
                            d="M3.83592 4.54084C4.59279 4.54084 4.73014 4.73 5.22171 5.23199L10.6573 10.7835C10.975 11.1078 11.2698 11.4246 11.2464 12.0339C11.222 12.6704 10.9579 12.912 10.6357 13.2411L5.17869 18.8145C4.67104 19.3331 4.07487 19.7104 3.26115 19.3028L2.98224 19.1049C2.56881 18.7217 2.36831 18.1413 2.5545 17.5386C2.72663 16.9813 3.7537 16.0569 4.19043 15.6109C4.44668 15.3492 7.57114 12.2026 7.70313 12.0013C7.56745 11.7944 3.81943 8.01285 3.37399 7.55792C3.05541 7.23254 2.78654 7.00027 2.58922 6.56017C2.17595 5.63823 2.92498 4.54084 3.83592 4.54084V4.54084ZM1 18.2058V17.741C1.03679 17.2624 1.18855 16.7833 1.4719 16.3452C1.75341 15.91 2.66003 15.0235 3.03027 14.6454C3.24985 14.4211 5.47358 12.1906 5.59766 12.0013C5.47231 11.8101 2.71832 9.03857 2.36428 8.67697C2.24636 8.55666 2.16021 8.46773 2.04189 8.34795C1.90592 8.21032 1.86043 8.13482 1.74049 7.99754C1.19034 7.3677 1 6.79109 1 5.90129C1 3.58202 3.76154 2.14595 5.64754 3.56836C6.1266 3.92966 10.3649 8.33458 11.1084 9.09393C11.8634 9.86506 12.7304 10.5434 12.7304 11.8697C12.7304 12.7115 12.5982 13.1852 12.1602 13.7887C11.831 14.2422 7.46718 18.6276 6.74704 19.363C5.95655 20.1704 5.30238 20.9978 4.00781 20.9978C2.27006 20.9978 1.11221 19.6665 1 18.2058V18.2058Z"
                            fill="white" />
                        <path fill-rule="evenodd" clip-rule="evenodd"
                            d="M14.1055 4.54093C14.8221 4.54093 14.9763 4.70624 15.4912 5.23208C16.2312 5.98784 21.1362 10.8959 21.3391 11.284C21.4433 11.4832 21.525 11.7926 21.516 12.034C21.4926 12.6589 21.2209 12.9189 20.9053 13.2412L15.4483 18.8146C15.1422 19.1272 14.8242 19.4619 14.2344 19.4619C13.4654 19.4619 12.897 18.9339 12.7845 18.309C12.7346 18.0319 12.7323 17.7867 12.8202 17.5348C13.0246 16.9483 14.0001 16.0806 14.46 15.611C14.7162 15.3493 17.8407 12.2027 17.9727 12.0014C17.8407 11.8002 14.759 8.69727 14.5029 8.43573C14.0783 8.00205 13.0683 7.09359 12.8533 6.5658C12.4721 5.63002 13.1776 4.54093 14.1055 4.54093V4.54093ZM11.2695 5.81358C11.2695 6.89913 11.4286 7.24795 12.0247 8.02661C12.4689 8.60687 15.6715 11.703 15.8672 12.0014C15.6771 12.2914 12.4067 15.4686 12.0429 15.951C11.937 16.0913 11.8681 16.1509 11.7587 16.319C11.1861 17.1995 11.0926 18.3569 11.5555 19.3015C11.6747 19.5446 11.9585 19.9828 12.141 20.1517L12.5233 20.4635C13.5472 21.1719 14.9016 21.1892 15.8924 20.4532C16.3943 20.0803 20.5999 15.7034 21.3564 14.9308C22.3665 13.8992 23 13.471 23 11.8258C23 10.5522 22.0639 9.79454 21.3564 9.07205C20.6167 8.31653 16.3927 3.92805 15.9171 3.5684C14.5211 2.51282 12.4123 2.95386 11.5698 4.67208C11.4258 4.96572 11.2695 5.3759 11.2695 5.81358V5.81358Z"
                            fill="white" />
                    </svg>