<svg width="24" height="24" viewBox="0 0 24 24" fill="none" xmlns="http://www.w3.org/2000/svg">
<path d="M6.375 12.6C6.87228 12.6 7.34919 12.442 7.70083 12.1607C8.05246 11.8794 8.25 11.4978 8.25 11.1C8.25 10.7022 8.05246 10.3206 7.70083 10.0393C7.34919 9.75804 6.87228 9.6 6.375 9.6C5.87772 9.6 5.40081 9.75804 5.04917 10.0393C4.69754 10.3206 4.5 10.7022 4.5 11.1C4.5 11.4978 4.69754 11.8794 5.04917 12.1607C5.40081 12.442 5.87772 12.6 6.375 12.6V12.6ZM6.375 17.4C6.87228 17.4 7.34919 17.242 7.70083 16.9607C8.05246 16.6794 8.25 16.2978 8.25 15.9C8.25 15.5022 8.05246 15.1206 7.70083 14.8393C7.34919 14.558 6.87228 14.4 6.375 14.4C5.87772 14.4 5.40081 14.558 5.04917 14.8393C4.69754 15.1206 4.5 15.5022 4.5 15.9C4.5 16.2978 4.69754 16.6794 5.04917 16.9607C5.40081 17.242 5.87772 17.4 6.375 17.4V17.4ZM20.25 11.1C20.25 11.4978 20.0525 11.8794 19.7008 12.1607C19.3492 12.442 18.8723 12.6 18.375 12.6C17.8777 12.6 17.4008 12.442 17.0492 12.1607C16.6975 11.8794 16.5 11.4978 16.5 11.1C16.5 10.7022 16.6975 10.3206 17.0492 10.0393C17.4008 9.75804 17.8777 9.6 18.375 9.6C18.8723 9.6 19.3492 9.75804 19.7008 10.0393C20.0525 10.3206 20.25 10.7022 20.25 11.1ZM12.375 12.6C12.8723 12.6 13.3492 12.442 13.7008 12.1607C14.0525 11.8794 14.25 11.4978 14.25 11.1C14.25 10.7022 14.0525 10.3206 13.7008 10.0393C13.3492 9.75804 12.8723 9.6 12.375 9.6C11.8777 9.6 11.4008 9.75804 11.0492 10.0393C10.6975 10.3206 10.5 10.7022 10.5 11.1C10.5 11.4978 10.6975 11.8794 11.0492 12.1607C11.4008 12.442 11.8777 12.6 12.375 12.6ZM14.25 15.9C14.25 16.2978 14.0525 16.6794 13.7008 16.9607C13.3492 17.242 12.8723 17.4 12.375 17.4C11.8777 17.4 11.4008 17.242 11.0492 16.9607C10.6975 16.6794 10.5 16.2978 10.5 15.9C10.5 15.5022 10.6975 15.1206 11.0492 14.8393C11.4008 14.558 11.8777 14.4 12.375 14.4C12.8723 14.4 13.3492 14.558 13.7008 14.8393C14.0525 15.1206 14.25 15.5022 14.25 15.9V15.9ZM17.991 2.5008C17.9281 1.82103 17.5462 1.18543 16.9219 0.721583C16.2976 0.257734 15.477 -3.99573e-05 14.625 4.64569e-09H9.375C8.54484 2.00694e-05 7.74382 0.244808 7.12506 0.687566C6.50631 1.13032 6.11324 1.73999 6.021 2.4H3.375C2.47989 2.4 1.62145 2.68446 0.988515 3.19081C0.35558 3.69716 0 4.38392 0 5.1V21.3C0 22.0161 0.35558 22.7028 0.988515 23.2092C1.62145 23.7155 2.47989 24 3.375 24H20.625C21.0682 24 21.5071 23.9302 21.9166 23.7945C22.326 23.6588 22.6981 23.4599 23.0115 23.2092C23.3249 22.9585 23.5735 22.6608 23.7431 22.3332C23.9127 22.0057 24 21.6546 24 21.3V5.1C24 4.74543 23.9127 4.39433 23.7431 4.06675C23.5735 3.73918 23.3249 3.44153 23.0115 3.19081C22.6981 2.94009 22.326 2.74121 21.9166 2.60553C21.5071 2.46984 21.0682 2.4 20.625 2.4H17.979L17.991 2.5008ZM17.991 2.5152L18 2.7C18 2.6376 17.997 2.5764 17.9925 2.5152H17.991ZM9.375 5.4H14.625C15.795 5.4 16.8255 4.9236 17.4315 4.2H20.625C20.9234 4.2 21.2095 4.29482 21.4205 4.4636C21.6315 4.63239 21.75 4.86131 21.75 5.1V21.3C21.75 21.5387 21.6315 21.7676 21.4205 21.9364C21.2095 22.1052 20.9234 22.2 20.625 22.2H3.375C3.07663 22.2 2.79048 22.1052 2.5795 21.9364C2.36853 21.7676 2.25 21.5387 2.25 21.3V5.1C2.25 4.86131 2.36853 4.63239 2.5795 4.4636C2.79048 4.29482 3.07663 4.2 3.375 4.2H6.5685C7.1745 4.9236 8.205 5.4 9.375 5.4ZM9.375 1.8H14.625C14.9234 1.8 15.2095 1.89482 15.4205 2.0636C15.6315 2.23239 15.75 2.46131 15.75 2.7C15.75 2.93869 15.6315 3.16761 15.4205 3.3364C15.2095 3.50518 14.9234 3.6 14.625 3.6H9.375C9.07663 3.6 8.79048 3.50518 8.57951 3.3364C8.36853 3.16761 8.25 2.93869 8.25 2.7C8.25 2.46131 8.36853 2.23239 8.57951 2.0636C8.79048 1.89482 9.07663 1.8 9.375 1.8Z" fill="black" fill-opacity="0.5"/>
</svg>
